<mxfile host="app.diagrams.net" agent="Mozilla/5.0 (Windows NT 10.0; Win64; x64) AppleWebKit/537.36 (KHTML, like Gecko) Chrome/131.0.0.0 Safari/537.36" version="28.0.7">
  <diagram name="Página-1" id="8a9MDbCPGd2QX_-oFiBN">
    <mxGraphModel dx="2253" dy="1954" grid="1" gridSize="10" guides="1" tooltips="1" connect="1" arrows="1" fold="1" page="1" pageScale="1" pageWidth="827" pageHeight="1169" background="#FFFFFF" math="0" shadow="0">
      <root>
        <mxCell id="0" />
        <mxCell id="1" parent="0" />
        <mxCell id="McQdbodkJSRWktsnhfyt-24" value="ID_livro" style="ellipse;whiteSpace=wrap;html=1;align=center;" vertex="1" parent="1">
          <mxGeometry x="660" y="-30" width="100" height="40" as="geometry" />
        </mxCell>
        <mxCell id="McQdbodkJSRWktsnhfyt-25" value="&lt;span style=&quot;border-bottom: 1px dotted&quot;&gt;Sinopse&lt;/span&gt;" style="ellipse;whiteSpace=wrap;html=1;align=center;" vertex="1" parent="1">
          <mxGeometry x="660" y="120" width="100" height="40" as="geometry" />
        </mxCell>
        <mxCell id="McQdbodkJSRWktsnhfyt-26" value="PDF" style="ellipse;whiteSpace=wrap;html=1;align=center;" vertex="1" parent="1">
          <mxGeometry x="660" y="170" width="100" height="40" as="geometry" />
        </mxCell>
        <mxCell id="McQdbodkJSRWktsnhfyt-29" value="&lt;span style=&quot;border-bottom: 1px dotted&quot;&gt;Título&lt;/span&gt;" style="ellipse;whiteSpace=wrap;html=1;align=center;" vertex="1" parent="1">
          <mxGeometry x="660" y="70" width="100" height="40" as="geometry" />
        </mxCell>
        <mxCell id="McQdbodkJSRWktsnhfyt-30" value="Editora" style="ellipse;whiteSpace=wrap;html=1;align=center;" vertex="1" parent="1">
          <mxGeometry x="660" y="230" width="100" height="40" as="geometry" />
        </mxCell>
        <mxCell id="McQdbodkJSRWktsnhfyt-38" value="ISBN" style="ellipse;whiteSpace=wrap;html=1;align=center;" vertex="1" parent="1">
          <mxGeometry x="660" y="20" width="100" height="40" as="geometry" />
        </mxCell>
        <mxCell id="McQdbodkJSRWktsnhfyt-51" value="Nacionalidade" style="ellipse;whiteSpace=wrap;html=1;align=center;" vertex="1" parent="1">
          <mxGeometry x="660" y="-80" width="100" height="40" as="geometry" />
        </mxCell>
        <mxCell id="McQdbodkJSRWktsnhfyt-13" style="edgeStyle=orthogonalEdgeStyle;rounded=0;orthogonalLoop=1;jettySize=auto;html=1;" edge="1" parent="1" source="McQdbodkJSRWktsnhfyt-1" target="McQdbodkJSRWktsnhfyt-12">
          <mxGeometry relative="1" as="geometry" />
        </mxCell>
        <mxCell id="McQdbodkJSRWktsnhfyt-33" style="edgeStyle=orthogonalEdgeStyle;rounded=0;orthogonalLoop=1;jettySize=auto;html=1;exitX=0;exitY=0.75;exitDx=0;exitDy=0;entryX=1;entryY=0.5;entryDx=0;entryDy=0;" edge="1" parent="1" source="McQdbodkJSRWktsnhfyt-1" target="McQdbodkJSRWktsnhfyt-10">
          <mxGeometry relative="1" as="geometry" />
        </mxCell>
        <mxCell id="McQdbodkJSRWktsnhfyt-35" style="edgeStyle=orthogonalEdgeStyle;rounded=0;orthogonalLoop=1;jettySize=auto;html=1;exitX=0;exitY=1;exitDx=0;exitDy=0;entryX=1;entryY=0.5;entryDx=0;entryDy=0;" edge="1" parent="1" source="McQdbodkJSRWktsnhfyt-1" target="McQdbodkJSRWktsnhfyt-3">
          <mxGeometry relative="1" as="geometry" />
        </mxCell>
        <mxCell id="McQdbodkJSRWktsnhfyt-54" style="edgeStyle=orthogonalEdgeStyle;rounded=0;orthogonalLoop=1;jettySize=auto;html=1;exitX=0;exitY=0;exitDx=0;exitDy=0;entryX=1;entryY=0.5;entryDx=0;entryDy=0;" edge="1" parent="1" source="McQdbodkJSRWktsnhfyt-1" target="McQdbodkJSRWktsnhfyt-2">
          <mxGeometry relative="1" as="geometry" />
        </mxCell>
        <mxCell id="McQdbodkJSRWktsnhfyt-95" style="edgeStyle=orthogonalEdgeStyle;rounded=0;orthogonalLoop=1;jettySize=auto;html=1;exitX=0.5;exitY=1;exitDx=0;exitDy=0;" edge="1" parent="1" source="McQdbodkJSRWktsnhfyt-1" target="McQdbodkJSRWktsnhfyt-94">
          <mxGeometry relative="1" as="geometry" />
        </mxCell>
        <mxCell id="McQdbodkJSRWktsnhfyt-108" style="edgeStyle=orthogonalEdgeStyle;rounded=0;orthogonalLoop=1;jettySize=auto;html=1;entryX=0;entryY=0.5;entryDx=0;entryDy=0;" edge="1" parent="1" source="McQdbodkJSRWktsnhfyt-1" target="McQdbodkJSRWktsnhfyt-107">
          <mxGeometry relative="1" as="geometry" />
        </mxCell>
        <mxCell id="McQdbodkJSRWktsnhfyt-1" value="Usuário" style="whiteSpace=wrap;html=1;align=center;fillColor=#d5e8d4;strokeColor=#82b366;gradientColor=none;" vertex="1" parent="1">
          <mxGeometry x="20" y="40" width="120" height="60" as="geometry" />
        </mxCell>
        <mxCell id="McQdbodkJSRWktsnhfyt-2" value="ID_Usuário" style="ellipse;whiteSpace=wrap;html=1;align=center;fontStyle=4;" vertex="1" parent="1">
          <mxGeometry x="-190" width="100" height="40" as="geometry" />
        </mxCell>
        <mxCell id="McQdbodkJSRWktsnhfyt-3" value="Email" style="ellipse;whiteSpace=wrap;html=1;align=center;" vertex="1" parent="1">
          <mxGeometry x="-190" y="150" width="100" height="40" as="geometry" />
        </mxCell>
        <mxCell id="McQdbodkJSRWktsnhfyt-10" value="Nome" style="ellipse;whiteSpace=wrap;html=1;align=center;" vertex="1" parent="1">
          <mxGeometry x="-190" y="100" width="100" height="40" as="geometry" />
        </mxCell>
        <mxCell id="McQdbodkJSRWktsnhfyt-12" value="Idade" style="ellipse;whiteSpace=wrap;html=1;align=center;" vertex="1" parent="1">
          <mxGeometry x="-190" y="50" width="100" height="40" as="geometry" />
        </mxCell>
        <mxCell id="McQdbodkJSRWktsnhfyt-63" style="edgeStyle=orthogonalEdgeStyle;rounded=0;orthogonalLoop=1;jettySize=auto;html=1;exitX=0.75;exitY=0;exitDx=0;exitDy=0;entryX=0;entryY=0.5;entryDx=0;entryDy=0;" edge="1" parent="1" source="McQdbodkJSRWktsnhfyt-23" target="McQdbodkJSRWktsnhfyt-51">
          <mxGeometry relative="1" as="geometry" />
        </mxCell>
        <mxCell id="McQdbodkJSRWktsnhfyt-64" style="edgeStyle=orthogonalEdgeStyle;rounded=0;orthogonalLoop=1;jettySize=auto;html=1;exitX=1;exitY=0;exitDx=0;exitDy=0;entryX=0;entryY=0.5;entryDx=0;entryDy=0;" edge="1" parent="1" source="McQdbodkJSRWktsnhfyt-23" target="McQdbodkJSRWktsnhfyt-24">
          <mxGeometry relative="1" as="geometry" />
        </mxCell>
        <mxCell id="McQdbodkJSRWktsnhfyt-65" style="edgeStyle=orthogonalEdgeStyle;rounded=0;orthogonalLoop=1;jettySize=auto;html=1;exitX=1;exitY=0.25;exitDx=0;exitDy=0;" edge="1" parent="1" source="McQdbodkJSRWktsnhfyt-23" target="McQdbodkJSRWktsnhfyt-38">
          <mxGeometry relative="1" as="geometry">
            <Array as="points">
              <mxPoint x="590" y="55" />
              <mxPoint x="590" y="40" />
            </Array>
          </mxGeometry>
        </mxCell>
        <mxCell id="McQdbodkJSRWktsnhfyt-66" style="edgeStyle=orthogonalEdgeStyle;rounded=0;orthogonalLoop=1;jettySize=auto;html=1;" edge="1" parent="1" source="McQdbodkJSRWktsnhfyt-23" target="McQdbodkJSRWktsnhfyt-29">
          <mxGeometry relative="1" as="geometry" />
        </mxCell>
        <mxCell id="McQdbodkJSRWktsnhfyt-67" style="edgeStyle=orthogonalEdgeStyle;rounded=0;orthogonalLoop=1;jettySize=auto;html=1;exitX=1;exitY=0.75;exitDx=0;exitDy=0;entryX=0;entryY=0.5;entryDx=0;entryDy=0;" edge="1" parent="1" source="McQdbodkJSRWktsnhfyt-23" target="McQdbodkJSRWktsnhfyt-25">
          <mxGeometry relative="1" as="geometry">
            <Array as="points">
              <mxPoint x="580" y="85" />
              <mxPoint x="580" y="140" />
            </Array>
          </mxGeometry>
        </mxCell>
        <mxCell id="McQdbodkJSRWktsnhfyt-68" style="edgeStyle=orthogonalEdgeStyle;rounded=0;orthogonalLoop=1;jettySize=auto;html=1;exitX=1;exitY=1;exitDx=0;exitDy=0;entryX=0;entryY=0.5;entryDx=0;entryDy=0;" edge="1" parent="1" source="McQdbodkJSRWktsnhfyt-23" target="McQdbodkJSRWktsnhfyt-26">
          <mxGeometry relative="1" as="geometry" />
        </mxCell>
        <mxCell id="McQdbodkJSRWktsnhfyt-23" value="Livro" style="whiteSpace=wrap;html=1;align=center;fillColor=#d5e8d4;strokeColor=#82b366;gradientColor=none;" vertex="1" parent="1">
          <mxGeometry x="430" y="40" width="120" height="60" as="geometry" />
        </mxCell>
        <mxCell id="McQdbodkJSRWktsnhfyt-45" style="edgeStyle=orthogonalEdgeStyle;rounded=0;orthogonalLoop=1;jettySize=auto;html=1;entryDx=0;entryDy=0;" edge="1" parent="1" source="McQdbodkJSRWktsnhfyt-41" target="McQdbodkJSRWktsnhfyt-23">
          <mxGeometry relative="1" as="geometry" />
        </mxCell>
        <mxCell id="McQdbodkJSRWktsnhfyt-48" style="edgeStyle=orthogonalEdgeStyle;rounded=0;orthogonalLoop=1;jettySize=auto;html=1;exitX=0.25;exitY=1;exitDx=0;exitDy=0;entryX=0.5;entryY=0;entryDx=0;entryDy=0;" edge="1" parent="1" source="McQdbodkJSRWktsnhfyt-41" target="McQdbodkJSRWktsnhfyt-42">
          <mxGeometry relative="1" as="geometry" />
        </mxCell>
        <mxCell id="McQdbodkJSRWktsnhfyt-49" style="edgeStyle=orthogonalEdgeStyle;rounded=0;orthogonalLoop=1;jettySize=auto;html=1;exitX=0.75;exitY=1;exitDx=0;exitDy=0;entryX=0.5;entryY=0;entryDx=0;entryDy=0;" edge="1" parent="1" source="McQdbodkJSRWktsnhfyt-41" target="McQdbodkJSRWktsnhfyt-43">
          <mxGeometry relative="1" as="geometry" />
        </mxCell>
        <mxCell id="McQdbodkJSRWktsnhfyt-41" value="Autor" style="whiteSpace=wrap;html=1;align=center;fillColor=#d5e8d4;strokeColor=#82b366;gradientColor=none;" vertex="1" parent="1">
          <mxGeometry x="430" y="260" width="120" height="60" as="geometry" />
        </mxCell>
        <mxCell id="McQdbodkJSRWktsnhfyt-42" value="ID_autor" style="ellipse;whiteSpace=wrap;html=1;align=center;" vertex="1" parent="1">
          <mxGeometry x="370" y="400" width="100" height="40" as="geometry" />
        </mxCell>
        <mxCell id="McQdbodkJSRWktsnhfyt-43" value="Nome_autor" style="ellipse;whiteSpace=wrap;html=1;align=center;" vertex="1" parent="1">
          <mxGeometry x="500" y="400" width="100" height="40" as="geometry" />
        </mxCell>
        <mxCell id="McQdbodkJSRWktsnhfyt-58" style="edgeStyle=orthogonalEdgeStyle;rounded=0;orthogonalLoop=1;jettySize=auto;html=1;exitDx=0;exitDy=0;" edge="1" parent="1" source="McQdbodkJSRWktsnhfyt-56" target="McQdbodkJSRWktsnhfyt-23">
          <mxGeometry relative="1" as="geometry" />
        </mxCell>
        <mxCell id="McQdbodkJSRWktsnhfyt-56" value="Genêro" style="whiteSpace=wrap;html=1;align=center;fillColor=#d5e8d4;strokeColor=#82b366;gradientColor=none;" vertex="1" parent="1">
          <mxGeometry x="430" y="-140" width="120" height="60" as="geometry" />
        </mxCell>
        <mxCell id="McQdbodkJSRWktsnhfyt-117" style="edgeStyle=orthogonalEdgeStyle;rounded=0;orthogonalLoop=1;jettySize=auto;html=1;entryX=0.5;entryY=0;entryDx=0;entryDy=0;" edge="1" parent="1" source="McQdbodkJSRWktsnhfyt-57" target="McQdbodkJSRWktsnhfyt-56">
          <mxGeometry relative="1" as="geometry" />
        </mxCell>
        <mxCell id="McQdbodkJSRWktsnhfyt-57" value="Classificação de genÊro" style="ellipse;whiteSpace=wrap;html=1;align=center;" vertex="1" parent="1">
          <mxGeometry x="440" y="-230" width="100" height="40" as="geometry" />
        </mxCell>
        <mxCell id="McQdbodkJSRWktsnhfyt-115" style="edgeStyle=orthogonalEdgeStyle;rounded=0;orthogonalLoop=1;jettySize=auto;html=1;entryX=0;entryY=0;entryDx=0;entryDy=0;" edge="1" parent="1" source="McQdbodkJSRWktsnhfyt-60" target="McQdbodkJSRWktsnhfyt-23">
          <mxGeometry relative="1" as="geometry">
            <Array as="points">
              <mxPoint x="400" y="-80" />
              <mxPoint x="400" y="40" />
            </Array>
          </mxGeometry>
        </mxCell>
        <mxCell id="McQdbodkJSRWktsnhfyt-60" value="Avaliação" style="whiteSpace=wrap;html=1;align=center;fillColor=#d5e8d4;strokeColor=#82b366;gradientColor=none;" vertex="1" parent="1">
          <mxGeometry x="90" y="-200" width="120" height="60" as="geometry" />
        </mxCell>
        <mxCell id="McQdbodkJSRWktsnhfyt-79" style="edgeStyle=orthogonalEdgeStyle;rounded=0;orthogonalLoop=1;jettySize=auto;html=1;entryX=0;entryY=0.5;entryDx=0;entryDy=0;" edge="1" parent="1" source="McQdbodkJSRWktsnhfyt-61" target="McQdbodkJSRWktsnhfyt-60">
          <mxGeometry relative="1" as="geometry" />
        </mxCell>
        <mxCell id="McQdbodkJSRWktsnhfyt-61" value="nota" style="ellipse;whiteSpace=wrap;html=1;align=center;" vertex="1" parent="1">
          <mxGeometry x="-70" y="-220" width="100" height="40" as="geometry" />
        </mxCell>
        <mxCell id="McQdbodkJSRWktsnhfyt-69" style="edgeStyle=orthogonalEdgeStyle;rounded=0;orthogonalLoop=1;jettySize=auto;html=1;exitX=0.75;exitY=1;exitDx=0;exitDy=0;entryX=0.01;entryY=0.675;entryDx=0;entryDy=0;entryPerimeter=0;" edge="1" parent="1" source="McQdbodkJSRWktsnhfyt-23" target="McQdbodkJSRWktsnhfyt-30">
          <mxGeometry relative="1" as="geometry">
            <Array as="points">
              <mxPoint x="520" y="220" />
              <mxPoint x="661" y="220" />
            </Array>
          </mxGeometry>
        </mxCell>
        <mxCell id="McQdbodkJSRWktsnhfyt-76" style="edgeStyle=orthogonalEdgeStyle;rounded=0;orthogonalLoop=1;jettySize=auto;html=1;entryX=0.5;entryY=0;entryDx=0;entryDy=0;" edge="1" parent="1" source="McQdbodkJSRWktsnhfyt-70" target="McQdbodkJSRWktsnhfyt-60">
          <mxGeometry relative="1" as="geometry" />
        </mxCell>
        <mxCell id="McQdbodkJSRWktsnhfyt-70" value="data_avaliacao" style="ellipse;whiteSpace=wrap;html=1;align=center;" vertex="1" parent="1">
          <mxGeometry x="100" y="-280" width="100" height="40" as="geometry" />
        </mxCell>
        <mxCell id="McQdbodkJSRWktsnhfyt-77" style="edgeStyle=orthogonalEdgeStyle;rounded=0;orthogonalLoop=1;jettySize=auto;html=1;entryX=1;entryY=0.5;entryDx=0;entryDy=0;" edge="1" parent="1" source="McQdbodkJSRWktsnhfyt-71" target="McQdbodkJSRWktsnhfyt-60">
          <mxGeometry relative="1" as="geometry" />
        </mxCell>
        <mxCell id="McQdbodkJSRWktsnhfyt-71" value="Comentario" style="ellipse;whiteSpace=wrap;html=1;align=center;" vertex="1" parent="1">
          <mxGeometry x="260" y="-220" width="100" height="40" as="geometry" />
        </mxCell>
        <mxCell id="McQdbodkJSRWktsnhfyt-82" style="edgeStyle=orthogonalEdgeStyle;rounded=0;orthogonalLoop=1;jettySize=auto;html=1;entryX=0.75;entryY=1;entryDx=0;entryDy=0;" edge="1" parent="1" target="McQdbodkJSRWktsnhfyt-1">
          <mxGeometry relative="1" as="geometry">
            <mxPoint x="180" y="150" as="sourcePoint" />
            <Array as="points">
              <mxPoint x="180" y="151" />
              <mxPoint x="160" y="151" />
              <mxPoint x="160" y="90" />
              <mxPoint x="140" y="90" />
              <mxPoint x="140" y="100" />
            </Array>
          </mxGeometry>
        </mxCell>
        <mxCell id="McQdbodkJSRWktsnhfyt-84" style="edgeStyle=orthogonalEdgeStyle;rounded=0;orthogonalLoop=1;jettySize=auto;html=1;" edge="1" parent="1" target="McQdbodkJSRWktsnhfyt-83">
          <mxGeometry relative="1" as="geometry">
            <mxPoint x="240" y="180" as="sourcePoint" />
          </mxGeometry>
        </mxCell>
        <mxCell id="McQdbodkJSRWktsnhfyt-81" style="edgeStyle=orthogonalEdgeStyle;rounded=0;orthogonalLoop=1;jettySize=auto;html=1;exitX=0.5;exitY=0;exitDx=0;exitDy=0;" edge="1" parent="1">
          <mxGeometry relative="1" as="geometry">
            <mxPoint x="240" y="180" as="sourcePoint" />
            <mxPoint x="240" y="180" as="targetPoint" />
          </mxGeometry>
        </mxCell>
        <mxCell id="McQdbodkJSRWktsnhfyt-83" value="ID_Administração" style="ellipse;whiteSpace=wrap;html=1;align=center;fontStyle=4;" vertex="1" parent="1">
          <mxGeometry x="190" y="260" width="100" height="40" as="geometry" />
        </mxCell>
        <mxCell id="McQdbodkJSRWktsnhfyt-85" value="Administração" style="shape=associativeEntity;whiteSpace=wrap;html=1;align=center;fillColor=#D5E8D4;" vertex="1" parent="1">
          <mxGeometry x="170" y="120" width="140" height="60" as="geometry" />
        </mxCell>
        <mxCell id="McQdbodkJSRWktsnhfyt-93" style="edgeStyle=orthogonalEdgeStyle;rounded=0;orthogonalLoop=1;jettySize=auto;html=1;entryX=0.5;entryY=0;entryDx=0;entryDy=0;" edge="1" parent="1" source="McQdbodkJSRWktsnhfyt-86" target="McQdbodkJSRWktsnhfyt-88">
          <mxGeometry relative="1" as="geometry" />
        </mxCell>
        <mxCell id="McQdbodkJSRWktsnhfyt-86" value="P&lt;span style=&quot;background-color: transparent; color: light-dark(rgb(0, 0, 0), rgb(255, 255, 255));&quot;&gt;ostagem&lt;/span&gt;" style="whiteSpace=wrap;html=1;align=center;fillColor=#d5e8d4;strokeColor=#82b366;gradientColor=none;" vertex="1" parent="1">
          <mxGeometry x="-330" y="500" width="120" height="60" as="geometry" />
        </mxCell>
        <mxCell id="McQdbodkJSRWktsnhfyt-88" value="ID_Postag" style="ellipse;whiteSpace=wrap;html=1;align=center;" vertex="1" parent="1">
          <mxGeometry x="-320" y="610" width="100" height="40" as="geometry" />
        </mxCell>
        <mxCell id="McQdbodkJSRWktsnhfyt-98" style="edgeStyle=orthogonalEdgeStyle;rounded=0;orthogonalLoop=1;jettySize=auto;html=1;" edge="1" parent="1" source="McQdbodkJSRWktsnhfyt-89" target="McQdbodkJSRWktsnhfyt-97">
          <mxGeometry relative="1" as="geometry" />
        </mxCell>
        <mxCell id="McQdbodkJSRWktsnhfyt-100" style="edgeStyle=orthogonalEdgeStyle;rounded=0;orthogonalLoop=1;jettySize=auto;html=1;entryX=0.5;entryY=0;entryDx=0;entryDy=0;" edge="1" parent="1" source="McQdbodkJSRWktsnhfyt-89" target="McQdbodkJSRWktsnhfyt-86">
          <mxGeometry relative="1" as="geometry" />
        </mxCell>
        <mxCell id="McQdbodkJSRWktsnhfyt-89" value="Comunidade" style="whiteSpace=wrap;html=1;align=center;fillColor=#d5e8d4;strokeColor=#82b366;gradientColor=none;" vertex="1" parent="1">
          <mxGeometry x="-150" y="330" width="140" height="70" as="geometry" />
        </mxCell>
        <mxCell id="McQdbodkJSRWktsnhfyt-90" value="ID_Comunidade" style="ellipse;whiteSpace=wrap;html=1;align=center;" vertex="1" parent="1">
          <mxGeometry x="-40" y="440" width="100" height="40" as="geometry" />
        </mxCell>
        <mxCell id="McQdbodkJSRWktsnhfyt-91" style="edgeStyle=orthogonalEdgeStyle;rounded=0;orthogonalLoop=1;jettySize=auto;html=1;entryX=0.4;entryY=-0.025;entryDx=0;entryDy=0;entryPerimeter=0;" edge="1" parent="1" source="McQdbodkJSRWktsnhfyt-89" target="McQdbodkJSRWktsnhfyt-90">
          <mxGeometry relative="1" as="geometry" />
        </mxCell>
        <mxCell id="McQdbodkJSRWktsnhfyt-96" style="edgeStyle=orthogonalEdgeStyle;rounded=0;orthogonalLoop=1;jettySize=auto;html=1;exitX=0.5;exitY=1;exitDx=0;exitDy=0;" edge="1" parent="1" source="McQdbodkJSRWktsnhfyt-94" target="McQdbodkJSRWktsnhfyt-89">
          <mxGeometry relative="1" as="geometry" />
        </mxCell>
        <mxCell id="McQdbodkJSRWktsnhfyt-94" value="Cadastra" style="shape=rhombus;double=1;perimeter=rhombusPerimeter;whiteSpace=wrap;html=1;align=center;" vertex="1" parent="1">
          <mxGeometry y="190" width="120" height="60" as="geometry" />
        </mxCell>
        <mxCell id="McQdbodkJSRWktsnhfyt-97" value="Nome da comunidade" style="ellipse;whiteSpace=wrap;html=1;align=center;" vertex="1" parent="1">
          <mxGeometry x="90" y="440" width="100" height="40" as="geometry" />
        </mxCell>
        <mxCell id="McQdbodkJSRWktsnhfyt-109" style="edgeStyle=orthogonalEdgeStyle;rounded=0;orthogonalLoop=1;jettySize=auto;html=1;" edge="1" parent="1" source="McQdbodkJSRWktsnhfyt-107" target="McQdbodkJSRWktsnhfyt-23">
          <mxGeometry relative="1" as="geometry" />
        </mxCell>
        <mxCell id="McQdbodkJSRWktsnhfyt-107" value="acessa" style="shape=rhombus;double=1;perimeter=rhombusPerimeter;whiteSpace=wrap;html=1;align=center;" vertex="1" parent="1">
          <mxGeometry x="230" y="-10" width="120" height="60" as="geometry" />
        </mxCell>
        <mxCell id="McQdbodkJSRWktsnhfyt-118" value="ID_Usuário" style="ellipse;whiteSpace=wrap;html=1;align=center;fontStyle=4;" vertex="1" parent="1">
          <mxGeometry x="-50" y="-120" width="100" height="40" as="geometry" />
        </mxCell>
        <mxCell id="McQdbodkJSRWktsnhfyt-119" style="edgeStyle=orthogonalEdgeStyle;rounded=0;orthogonalLoop=1;jettySize=auto;html=1;entryX=0.133;entryY=0.933;entryDx=0;entryDy=0;entryPerimeter=0;" edge="1" parent="1" source="McQdbodkJSRWktsnhfyt-118" target="McQdbodkJSRWktsnhfyt-60">
          <mxGeometry relative="1" as="geometry" />
        </mxCell>
        <mxCell id="McQdbodkJSRWktsnhfyt-121" value="ID_livro" style="ellipse;whiteSpace=wrap;html=1;align=center;" vertex="1" parent="1">
          <mxGeometry x="20" y="-60" width="100" height="40" as="geometry" />
        </mxCell>
        <mxCell id="McQdbodkJSRWktsnhfyt-122" style="edgeStyle=orthogonalEdgeStyle;rounded=0;orthogonalLoop=1;jettySize=auto;html=1;entryX=0.358;entryY=1.05;entryDx=0;entryDy=0;entryPerimeter=0;" edge="1" parent="1" source="McQdbodkJSRWktsnhfyt-121" target="McQdbodkJSRWktsnhfyt-60">
          <mxGeometry relative="1" as="geometry">
            <Array as="points">
              <mxPoint x="70" y="-90" />
              <mxPoint x="133" y="-90" />
            </Array>
          </mxGeometry>
        </mxCell>
      </root>
    </mxGraphModel>
  </diagram>
</mxfile>
